<?xml version="1.0" standalone="no"?>
<!DOCTYPE svg PUBLIC "-//W3C//DTD SVG 20010904//EN"
 "http://www.w3.org/TR/2001/REC-SVG-20010904/DTD/svg10.dtd">
<svg version="1.0" xmlns="http://www.w3.org/2000/svg"
 width="1237.000000pt" height="1237.000000pt" viewBox="0 0 1237.000000 1237.000000"
 preserveAspectRatio="xMidYMid meet">
<metadata>
Created by potrace 1.14, written by Peter Selinger 2001-2017
</metadata>
<g transform="translate(0.000000,1237.000000) scale(0.100000,-0.100000)"
fill="#000000" stroke="none">
<path d="M5848 12365 c-1 -1 -50 -6 -108 -9 -58 -4 -118 -9 -135 -11 -16 -2
-57 -7 -90 -10 -62 -6 -270 -33 -303 -40 -11 -2 -37 -6 -58 -10 -328 -51 -722
-155 -1069 -280 -530 -192 -1054 -467 -1505 -793 -98 -71 -353 -271 -410 -321
-14 -13 -62 -55 -108 -94 -183 -160 -507 -501 -698 -737 -452 -557 -825 -1246
-1052 -1940 -44 -135 -107 -349 -117 -399 -2 -9 -12 -52 -23 -96 -45 -176 -84
-394 -127 -710 -2 -16 -7 -64 -11 -105 -3 -41 -8 -91 -10 -110 -23 -234 -23
-747 0 -1015 3 -27 7 -79 11 -115 3 -36 8 -83 10 -105 3 -22 8 -58 11 -80 2
-22 7 -51 9 -65 2 -14 7 -45 10 -70 16 -119 65 -371 97 -495 11 -44 22 -89 24
-99 11 -55 91 -324 138 -463 202 -596 502 -1168 881 -1679 81 -109 238 -306
281 -353 13 -13 49 -55 81 -92 76 -88 415 -424 523 -519 250 -219 663 -523
881 -648 19 -11 88 -51 154 -89 440 -255 992 -478 1519 -613 106 -27 357 -82
441 -96 17 -2 55 -9 85 -14 58 -10 97 -15 170 -26 25 -3 56 -8 70 -10 14 -2
59 -6 100 -10 41 -3 86 -8 100 -10 115 -19 774 -26 980 -11 134 9 205 16 255
22 22 2 65 7 95 10 47 5 183 26 270 41 14 2 52 8 85 14 33 5 103 19 155 30 52
12 106 23 120 26 14 3 59 14 100 25 41 11 82 21 90 23 24 6 120 33 195 55 141
40 461 154 580 206 599 259 1050 526 1515 899 264 211 608 545 825 801 559
657 969 1406 1216 2222 28 93 52 175 54 183 2 8 19 81 39 161 19 81 38 161 41
178 3 17 12 62 19 99 8 37 17 87 21 112 4 24 8 47 10 50 2 3 6 34 10 70 4 36
8 67 10 70 2 3 6 37 10 75 4 39 9 77 10 86 2 9 6 52 10 95 3 43 8 93 10 109
17 129 24 607 12 825 -10 178 -23 339 -32 400 -2 14 -9 63 -15 110 -6 47 -13
96 -15 110 -2 14 -9 54 -14 90 -6 36 -13 76 -16 90 -3 14 -10 50 -16 80 -10
56 -15 76 -24 120 -4 14 -8 36 -11 50 -7 35 -83 329 -94 365 -6 17 -29 89 -51
160 -124 389 -320 834 -519 1175 -96 165 -216 355 -295 467 -31 43 -63 89 -73
102 -144 205 -380 480 -617 717 -392 393 -756 680 -1215 954 -180 108 -544
295 -710 364 -63 26 -130 54 -148 63 -139 62 -596 212 -792 258 -83 20 -333
74 -364 79 -21 4 -41 8 -45 10 -3 2 -28 6 -56 10 -27 3 -59 8 -71 10 -12 2
-45 7 -75 11 -30 3 -61 8 -69 10 -8 2 -43 7 -77 10 -34 3 -70 7 -80 9 -11 2
-59 7 -109 11 -49 4 -100 9 -114 12 -27 5 -786 14 -792 8z m742 -729 c19 -1
64 -6 100 -10 36 -4 81 -9 100 -11 94 -9 156 -16 170 -20 8 -2 38 -7 65 -10
76 -10 378 -71 490 -100 55 -15 107 -28 115 -30 37 -8 258 -78 347 -109 335
-117 668 -272 987 -461 227 -134 512 -336 716 -509 288 -244 594 -561 795
-826 28 -36 52 -67 55 -70 14 -12 135 -187 213 -305 177 -271 364 -629 474
-905 28 -69 54 -134 58 -145 5 -11 9 -22 10 -25 1 -3 5 -12 8 -20 16 -39 100
-301 123 -383 89 -323 152 -659 179 -942 3 -33 8 -82 10 -110 15 -158 20 -522
10 -700 -7 -128 -16 -248 -20 -280 -7 -51 -25 -188 -30 -236 -3 -26 -8 -58
-10 -70 -3 -13 -10 -51 -15 -84 -23 -139 -23 -139 -86 -395 -200 -817 -624
-1620 -1199 -2268 -63 -71 -80 -90 -180 -192 -202 -208 -396 -380 -610 -540
-55 -41 -102 -77 -105 -80 -15 -17 -343 -228 -450 -290 -228 -132 -592 -306
-792 -379 -248 -89 -391 -134 -588 -185 -114 -29 -159 -39 -265 -62 -5 -1 -26
-4 -45 -8 -19 -3 -62 -10 -95 -16 -103 -18 -168 -29 -224 -35 -30 -4 -61 -8
-70 -10 -18 -3 -126 -13 -216 -20 -33 -2 -98 -7 -145 -10 -213 -16 -663 -5
-860 20 -19 3 -57 7 -85 10 -27 3 -61 8 -75 11 -14 2 -43 6 -65 9 -47 4 -272
43 -297 51 -9 3 -27 7 -40 9 -13 3 -34 7 -48 10 -14 3 -34 7 -45 9 -11 3 -56
14 -100 26 -44 11 -87 22 -95 24 -75 18 -409 125 -455 145 -11 5 -58 24 -105
42 -311 119 -646 291 -965 494 -160 102 -472 336 -600 450 -16 14 -59 52 -95
83 -89 79 -300 290 -390 392 -41 46 -83 93 -93 105 -94 104 -367 464 -367 484
0 5 -3 11 -8 13 -4 1 -28 35 -53 73 -200 305 -386 669 -514 1000 -38 100 -114
315 -119 340 -2 6 -12 42 -24 80 -44 143 -108 404 -118 479 -3 22 -7 43 -9 46
-2 3 -13 64 -24 136 -31 188 -30 184 -36 249 -4 33 -8 76 -11 95 -2 19 -7 73
-10 120 -4 47 -8 103 -9 125 -5 54 -5 526 -1 595 5 82 17 222 21 250 2 14 7
54 10 90 4 36 9 72 10 81 2 9 6 40 10 69 4 29 9 62 11 74 2 11 6 38 10 61 4
32 34 180 60 300 2 11 18 72 34 135 17 63 33 126 36 140 9 44 142 434 158 465
9 17 16 34 16 38 0 12 76 188 131 306 27 57 49 105 49 107 0 15 194 358 268
474 127 199 326 473 428 591 27 31 71 82 99 115 86 103 425 436 555 545 129
109 345 276 421 326 24 15 46 30 49 33 5 6 150 98 245 157 176 109 506 277
690 352 44 18 89 37 100 42 262 113 762 255 1065 304 19 3 46 7 60 10 35 7 69
12 195 29 120 16 180 22 325 32 52 4 96 8 98 9 5 4 636 -4 682 -9z"/>
<path d="M5949 11466 c-2 -2 -53 -6 -114 -10 -60 -3 -130 -8 -155 -11 -109
-11 -166 -17 -181 -20 -9 -2 -40 -6 -70 -10 -30 -3 -61 -8 -69 -10 -8 -2 -35
-7 -60 -10 -68 -10 -325 -64 -410 -86 -41 -11 -109 -29 -150 -41 -108 -29
-356 -113 -497 -169 -489 -194 -976 -479 -1378 -808 -44 -36 -85 -70 -91 -76
-6 -5 -31 -26 -55 -45 -57 -45 -429 -416 -496 -495 -329 -386 -543 -706 -751
-1125 -131 -262 -186 -394 -272 -645 -41 -121 -102 -325 -115 -382 -2 -10 -18
-76 -34 -148 -34 -144 -68 -332 -86 -475 -4 -30 -9 -62 -10 -71 -2 -9 -6 -52
-10 -95 -4 -43 -8 -89 -10 -101 -4 -25 -17 -345 -18 -428 0 -69 13 -411 17
-432 2 -10 7 -56 11 -102 4 -47 8 -92 10 -100 1 -9 6 -38 9 -66 13 -98 53
-338 62 -367 5 -17 11 -44 20 -93 30 -169 152 -559 252 -810 166 -415 441
-899 689 -1215 94 -119 195 -244 228 -280 202 -222 318 -338 539 -535 138
-124 420 -330 656 -480 265 -170 684 -371 1015 -488 194 -69 540 -165 710
-197 33 -6 69 -13 80 -15 110 -21 166 -30 253 -40 29 -4 63 -8 75 -11 12 -2
56 -7 97 -10 41 -3 86 -8 100 -10 14 -2 88 -7 165 -11 286 -14 612 -5 840 23
22 2 60 7 85 10 109 12 343 50 459 75 656 141 1284 409 1841 786 284 192 511
378 750 614 180 179 412 441 505 573 11 16 30 40 41 55 25 31 254 369 254 375
0 2 19 35 42 72 59 98 240 441 244 464 0 3 15 36 32 73 18 38 32 72 32 75 0 4
7 20 15 35 22 43 103 259 147 392 98 301 175 644 213 945 8 69 17 143 20 165
27 216 27 873 0 1055 -2 14 -6 50 -10 80 -12 111 -47 328 -71 445 -34 159 -32
154 -38 173 -3 9 -7 29 -10 43 -10 63 -103 365 -160 524 -89 249 -235 564
-369 800 -29 50 -56 98 -62 107 -9 16 -114 181 -155 243 -122 187 -324 440
-510 640 -215 231 -454 447 -685 619 -49 37 -97 73 -105 79 -32 26 -309 206
-390 254 -431 253 -880 440 -1360 564 -98 26 -149 38 -275 65 -77 16 -275 48
-370 59 -27 4 -61 8 -75 10 -24 3 -124 14 -205 21 -55 5 -622 14 -626 10z"/>
</g>
</svg>
